<svg xmlns="http://www.w3.org/2000/svg" aria-hidden="true" style="position:absolute;width:0;height:0;overflow:hidden">
<defs><symbol id="close-menu" viewBox="0 0 32 32"><path d="M23.733 10.304l-1.504-1.504-5.963 5.963-5.963-5.963-1.504 1.504 5.963 5.963-5.963 5.963 1.504 1.504 5.963-5.963 5.963 5.963 1.504-1.504-5.963-5.963 5.963-5.963z"></path></symbol><symbol id="menu" viewBox="0 0 32 32"><path d="M6.4 11.733v-2.133h19.2v2.133h-19.2zM6.4 17.067h19.2v-2.133h-19.2v2.133zM6.4 22.4h19.2v-2.133h-19.2v2.133z"></path></symbol><symbol id="checkbox" viewBox="0 0 16 15"><path d="M14.2222 1.66667V13.3333H1.77778V1.66667H14.2222ZM14.2222 0H1.77778C0.8 0 0 0.75 0 1.66667V13.3333C0 14.25 0.8 15 1.77778 15H14.2222C15.2 15 16 14.25 16 13.3333V1.66667C16 0.75 15.2 0 14.2222 0Z"/></symbol><symbol id="check" viewBox="0 0 15 15" fill="none"><path d="M2.95703 7.75166L2.88825 7.68604L2.81923 7.75141L1.93123 8.59258L1.85486 8.66492L1.93097 8.73753L5.42671 12.0724L5.49574 12.1382L5.56476 12.0724L13.069 4.91352L13.1449 4.84116L13.069 4.76881L12.1873 3.92764L12.1183 3.86183L12.0493 3.92761L5.49577 10.1735L2.95703 7.75166Z" fill="white" stroke="white" stroke-width="0.2"/></symbol></defs></svg>